<svg width="32" height="33" viewBox="0 0 32 33" fill="none" xmlns="http://www.w3.org/2000/svg">
<path fill-rule="evenodd" clip-rule="evenodd" d="M2.10577 13.7031H6.75157V31.8643H2.10577C1.40629 31.8643 0.839172 31.3242 0.839172 30.658V14.9094C0.839172 14.2432 1.40629 13.7031 2.10577 13.7031Z" stroke="white" stroke-width="1.60838" stroke-linecap="round" stroke-linejoin="round"/>
<path fill-rule="evenodd" clip-rule="evenodd" d="M28.7796 28.4641C28.4855 30.7275 26.9732 31.8642 24.2848 31.8642H10.2172C8.30584 31.8642 6.75159 30.4013 6.75159 28.6025V13.7249C11.2128 13.29 13.4434 11.7326 13.4434 7.54477V5.53792C13.4434 3.42266 15.2439 1.70789 17.4649 1.70789C18.3113 1.70789 19.1361 1.96217 19.8219 2.43463C20.7671 3.08699 21.3693 4.32254 21.3693 6.10165V11.9109C21.3693 12.405 22.2058 12.8103 23.0424 12.8103H27.5298C29.4202 12.8103 30.9535 14.2336 30.9955 16.0029C31.0235 17.1824 30.2849 20.8335 28.7796 28.4641Z" stroke="white" stroke-width="1.60838" stroke-linecap="round" stroke-linejoin="round"/>
</svg>
