<svg width="28" height="30" viewBox="0 0 28 30" fill="none" xmlns="http://www.w3.org/2000/svg">
<path fill-rule="evenodd" clip-rule="evenodd" d="M16.8977 20.7636C15.0546 21.9823 12.8249 22.6533 10.4491 22.5551C4.43998 22.307 -0.230422 17.2339 0.0177504 11.2245C0.265923 5.21506 5.33875 0.545458 11.3479 0.793631C17.3561 1.04172 22.0275 6.11382 21.7793 12.1233C21.6918 14.2416 21.0047 16.1935 19.8885 17.8223L27.2251 24.9458C28.1303 25.9273 28.0979 27.4443 27.1678 28.3843L27.125 28.4236L27.0798 28.4628C26.0689 29.3123 24.5543 29.2212 23.65 28.239L16.8977 20.7636ZM10.5529 20.0434C5.93063 19.8525 2.33784 15.9501 2.52875 11.3279C2.71966 6.70563 6.62199 3.11283 11.2442 3.30375C15.8665 3.49466 19.4593 7.39699 19.2684 12.0192C19.0775 16.6415 15.1751 20.2343 10.5529 20.0434Z" fill="white"/>
</svg>
